<?xml version="1.0" encoding="utf-8"?>
<!-- Generator: Adobe Illustrator 23.0.2, SVG Export Plug-In . SVG Version: 6.00 Build 0)  -->
<svg version="1.1" id="Layer_1" xmlns="http://www.w3.org/2000/svg" xmlns:xlink="http://www.w3.org/1999/xlink" x="0px" y="0px"
	 viewBox="0 0 1400 980" style="enable-background:new 0 0 1400 980;" xml:space="preserve">
<style type="text/css">
	.st0{fill:none;}
	.st1{fill:#FAA839;}
	.st2{fill:#A30B1A;}
	.st3{fill:#39B54A;}
	.st4{fill:#F15644;}
	.st5{fill:#FFDE38;}
	.st6{fill:#FFFFFF;}
	.st7{fill:#FECB88;}
	.st8{fill:#F2695B;}
	.st9{fill:#FFD74F;}
	.st10{fill:url(#SVGID_1_);}
</style>
<pattern  y="980" width="428.4" height="293.6" patternUnits="userSpaceOnUse" id="New_Pattern_7" viewBox="0 -293.6 428.4 293.6" style="overflow:visible;">
	<g>
		<rect y="-293.6" class="st0" width="428.4" height="293.6"/>
		<g>
			<polygon class="st0" points="0,0 428.4,0 428.4,-293.6 0,-293.6 			"/>
			<g>
				<path class="st1" d="M339.1-69.5H234.4c0,28.9,23.4,52.4,52.4,52.4C315.6-17.1,339.1-40.6,339.1-69.5z"/>
				<path class="st1" d="M339.1-97.9c0-6.2-1.4-15.4-7.4-20c-1.8-1.4-4-2.3-6.6-2.6l0,0h-78.2c-0.1,0-0.1,0-0.2,0
					c-2.1,0.1-3.9,1.1-5.5,2.6c-4.5,4.6-6.8,14-6.8,20H339.1z"/>
				<path class="st2" d="M339.1-85.5c0-4.6-3.7-8.3-8.3-8.3h-89.7c-4.6,0-8.3,3.7-8.3,8.3c0,2.3,0.9,4.4,2.4,5.9s3.6,2.4,5.9,2.4
					h89.7c0.1,0,0.3,0,0.4,0C335.6-77.4,339.1-81,339.1-85.5z"/>
				<polygon class="st3" points="331.2,-69.5 331.2,-74 241.1,-74 241.1,-69.5 				"/>
				<polygon class="st4" points="279.7,-93.8 279.7,-97.9 241.1,-97.9 241.1,-93.8 				"/>
				<polygon class="st4" points="331.2,-97.9 292.6,-97.9 292.6,-93.8 331.2,-93.8 				"/>
				<polygon class="st5" points="280.6,-77.2 305.9,-88.1 331.2,-77.2 				"/>
				<polygon class="st5" points="331.2,-74 331.2,-77.2 280.6,-77.2 280.6,-74 				"/>
				<polygon class="st5" points="240.8,-77.2 266.1,-88.1 291.4,-77.2 				"/>
				<polygon class="st5" points="291.4,-74 291.4,-77.2 240.8,-77.2 240.8,-74 				"/>
				<path class="st4" d="M288.5-36.2c0-1.4-1.1-2.6-2.6-2.6c-1.4,0-2.6,1.1-2.6,2.6c0,1.4,1.1,2.6,2.6,2.6S288.5-34.7,288.5-36.2z"
					/>
				<path class="st4" d="M275-52.5c0-1.4-1.1-2.6-2.6-2.6c-1.4,0-2.6,1.1-2.6,2.6c0,1.4,1.1,2.6,2.6,2.6
					C273.8-49.9,275-51.1,275-52.5z"/>
				<path class="st6" d="M269.6-39.9c0-1-0.8-1.7-1.7-1.7c-1,0-1.7,0.8-1.7,1.7s0.8,1.7,1.7,1.7C268.9-38.2,269.6-39,269.6-39.9z"/>
				<path class="st6" d="M306.3-39.9c0-1-0.8-1.7-1.7-1.7c-1,0-1.7,0.8-1.7,1.7s0.8,1.7,1.7,1.7S306.3-39,306.3-39.9z"/>
				<path class="st6" d="M257.2-52.5c0-1.4-1.1-2.6-2.6-2.6c-1.4,0-2.6,1.1-2.6,2.6c0,1.4,1.1,2.6,2.6,2.6
					C256-49.9,257.2-51.1,257.2-52.5z"/>
				<path class="st6" d="M296.9-52.5c0-1.4,1.1-2.6,2.6-2.6c1.4,0,2.6,1.1,2.6,2.6c0,1.4-1.1,2.6-2.6,2.6
					C298-49.9,296.9-51.1,296.9-52.5z"/>
				<path class="st4" d="M314.7-52.5c0-1.4,1.1-2.6,2.6-2.6c1.4,0,2.6,1.1,2.6,2.6c0,1.4-1.1,2.6-2.6,2.6
					C315.8-49.9,314.7-51.1,314.7-52.5z"/>
				<path class="st7" d="M331.7-117.9c-1.8-1.4-4-2.3-6.6-2.6h-78.4c-2.1,0.1-3.9,1.1-5.5,2.6H331.7z"/>
				<polygon class="st3" points="331.2,-69.5 331.2,-72.1 241.1,-72.1 241.1,-69.5 				"/>
				<polygon class="st7" points="331.2,-93.8 331.2,-96.4 241.1,-96.4 241.1,-93.8 				"/>
			</g>
			<g>
				<path class="st1" d="M428.4-209.1c0-0.9,0-1.7-0.1-2.6c-1.3-29.6-25.7-53.2-55.6-53.4h-0.3c-30.1,0-54.7,23.8-56,53.6
					c0,0.8-0.1,1.6-0.1,2.4c0,1.1,0,2.2,0.1,3.3c3.7-0.2,5.5-3.1,6.7-5.1c1.1-1.8,1.6-2.4,2.3-2.4c0.6,0,1.2,0.6,2.3,2.4
					c1.3,2.1,3.2,5.1,7.1,5.1s5.9-3.1,7.1-5.1c1.1-1.8,1.6-2.4,2.3-2.4c0.6,0,1.2,0.6,2.3,2.4c1.2,1.9,3,4.8,6.5,5.1
					c-0.2-1.1-0.3-2.2-0.3-3.3c0-0.9,0.1-1.8,0.2-2.7c1.3-9.6,9.5-16.9,19.4-16.9c0.1,0,0.2,0,0.3,0c9.8,0.2,17.9,7.6,19.1,17.1
					c0.1,0.8,0.2,1.7,0.2,2.5c0,1.1-0.1,2.2-0.3,3.3c3.7-0.2,5.5-3.1,6.7-5.1c1.1-1.8,1.6-2.4,2.3-2.4c0.6,0,1.2,0.6,2.3,2.4
					c1.3,2.1,3.2,5.1,7.1,5.1c0.2,0,0.5,0,0.7,0c0.1,0,0.2,0,0.3,0c0.2,0,0.4-0.1,0.6-0.1s0.4-0.1,0.6-0.2c0.1,0,0.2-0.1,0.3-0.1
					c0.5-0.2,0.9-0.5,1.3-0.7c0.2-0.1,0.3-0.2,0.5-0.4c0,0,0,0,0.1-0.1c0.2-0.2,0.4-0.3,0.5-0.5c0.2-0.2,0.3-0.4,0.5-0.6
					c0.2-0.2,0.3-0.4,0.5-0.6c0.1-0.2,0.2-0.3,0.3-0.5c0.3-0.5,0.6-0.9,0.9-1.4c1.1-1.8,1.6-2.4,2.3-2.4c0.6,0,1.2,0.6,2.3,2.4
					c1.2,1.9,3,4.8,6.5,5.1C428.4-206.9,428.4-208,428.4-209.1z"/>
				<path class="st4" d="M428.3-205.9c-3.5-0.3-5.3-3.2-6.5-5.1c-1.1-1.8-1.6-2.4-2.3-2.4c-0.7,0-1.2,0.6-2.3,2.4
					c-0.3,0.4-0.5,0.9-0.9,1.4c-0.1,0.2-0.2,0.3-0.3,0.5c-0.1,0.2-0.3,0.4-0.5,0.6c-0.2,0.2-0.3,0.4-0.5,0.6s-0.4,0.4-0.5,0.5
					c0,0,0,0-0.1,0.1c-0.1,0.1-0.3,0.2-0.5,0.4c-0.4,0.3-0.8,0.5-1.3,0.7c-0.1,0-0.2,0.1-0.3,0.1c-0.2,0.1-0.4,0.1-0.6,0.2
					c-0.2,0.1-0.4,0.1-0.6,0.1c-0.1,0-0.2,0-0.3,0c-0.2,0-0.5,0-0.7,0c-3.9,0-5.8-3.1-7.1-5.1c-1.1-1.8-1.6-2.4-2.3-2.4
					c-0.7,0-1.2,0.6-2.3,2.4c-1.2,2-3.1,4.9-6.7,5.1c-1.6,9.2-9.4,16.2-19,16.3c-0.1,0-0.2,0-0.3,0c-9.7,0-17.8-7.1-19.3-16.3
					c-3.5-0.3-5.3-3.2-6.5-5.1c-1.1-1.8-1.6-2.4-2.3-2.4c-0.7,0-1.2,0.6-2.3,2.4c-1.3,2.1-3.2,5.1-7.1,5.1s-5.8-3.1-7.1-5.1
					c-1.1-1.8-1.6-2.4-2.3-2.4c-0.6,0-1.2,0.6-2.3,2.4c-1.2,2-3.1,4.9-6.7,5.1c1.7,29.4,26.1,52.7,55.9,52.7h0.3
					C402.4-153.3,426.6-176.6,428.3-205.9z"/>
				<path class="st4" d="M352.8-209.1c0-0.9,0.1-1.8,0.2-2.7c-0.4-0.4-0.9-1-1.5-2.1c-1.3-2.1-3.2-5.1-7.1-5.1s-5.9,3.1-7.1,5.1
					c-1.1,1.8-1.6,2.4-2.3,2.4c-0.6,0-1.2-0.6-2.3-2.4c-1.3-2.1-3.2-5.1-7.1-5.1s-5.9,3.1-7.1,5.1c-0.9,1.5-1.4,2.2-2,2.4
					c0,0.8-0.1,1.6-0.1,2.4c0,1.1,0,2.2,0.1,3.3c3.7-0.2,5.5-3.1,6.7-5.1c1.1-1.8,1.6-2.4,2.3-2.4c0.6,0,1.2,0.6,2.3,2.4
					c1.3,2.1,3.2,5.1,7.1,5.1s5.9-3.1,7.1-5.1c1.1-1.8,1.6-2.4,2.3-2.4c0.6,0,1.2,0.6,2.3,2.4c1.2,1.9,3,4.8,6.5,5.1
					C352.9-206.9,352.8-208,352.8-209.1z"/>
				<path class="st4" d="M428.4-209.1c0-0.9,0-1.7-0.1-2.6c-0.4-0.3-0.9-1-1.7-2.2c-1.3-2.1-3.2-5.1-7.1-5.1s-5.9,3.1-7.1,5.1
					c-1.1,1.8-1.6,2.4-2.3,2.4c-0.6,0-1.2-0.6-2.3-2.4c-1.3-2.1-3.2-5.1-7.1-5.1s-5.9,3.1-7.1,5.1c-0.8,1.3-1.3,2-1.8,2.3
					c0.1,0.8,0.2,1.7,0.2,2.5c0,1.1-0.1,2.2-0.3,3.3c3.7-0.2,5.5-3.1,6.7-5.1c1.1-1.8,1.6-2.4,2.3-2.4c0.6,0,1.2,0.6,2.3,2.4
					c1.3,2.1,3.2,5.1,7.1,5.1s5.9-3.1,7.1-5.1c1.1-1.8,1.6-2.4,2.3-2.4c0.6,0,1.2,0.6,2.3,2.4c1.2,1.9,3,4.8,6.5,5.1
					C428.4-206.9,428.4-208,428.4-209.1z"/>
				<path class="st2" d="M375.5-164.5c0-1.7-1.4-3.1-3.1-3.1s-3.1,1.4-3.1,3.1s1.4,3.1,3.1,3.1C374.1-161.5,375.5-162.8,375.5-164.5
					z"/>
				<path class="st2" d="M359.2-184.2c0-1.7-1.4-3.1-3.1-3.1s-3.1,1.4-3.1,3.1c0,1.7,1.4,3.1,3.1,3.1
					C357.9-181.1,359.2-182.5,359.2-184.2z"/>
				<path class="st6" d="M352.8-169.1c0-1.2-0.9-2.1-2.1-2.1s-2.1,0.9-2.1,2.1s0.9,2.1,2.1,2.1S352.8-167.9,352.8-169.1z"/>
				<path class="st6" d="M396.9-169.1c0-1.2-0.9-2.1-2.1-2.1s-2.1,0.9-2.1,2.1s0.9,2.1,2.1,2.1S396.9-167.9,396.9-169.1z"/>
				<path class="st6" d="M337.8-184.2c0-1.7-1.4-3.1-3.1-3.1s-3.1,1.4-3.1,3.1c0,1.7,1.4,3.1,3.1,3.1S337.8-182.5,337.8-184.2z"/>
				<path class="st6" d="M346.3-207.2c0-1-0.8-1.8-1.8-1.8s-1.8,0.8-1.8,1.8s0.8,1.8,1.8,1.8S346.3-206.3,346.3-207.2z"/>
				<path class="st2" d="M327.8-207.2c0-1.7-1.4-3.1-3.1-3.1s-3.1,1.4-3.1,3.1c0,1.7,1.4,3.1,3.1,3.1
					C326.5-204.2,327.8-205.5,327.8-207.2z"/>
				<path class="st6" d="M385.6-184.2c0-1.7,1.4-3.1,3.1-3.1s3.1,1.4,3.1,3.1c0,1.7-1.4,3.1-3.1,3.1S385.6-182.5,385.6-184.2z"/>
				<path class="st2" d="M407-184.2c0-1.7,1.4-3.1,3.1-3.1s3.1,1.4,3.1,3.1c0,1.7-1.4,3.1-3.1,3.1S407-182.5,407-184.2z"/>
				<path class="st6" d="M398.3-207.2c0-1.1,0.9-2,2-2s2,0.9,2,2c0,1.1-0.9,2-2,2C399.2-205.3,398.3-206.1,398.3-207.2z"/>
				<path class="st6" d="M410.6-207.2c0-1.7,1.4-3.1,3.1-3.1s3.1,1.4,3.1,3.1c0,1.7-1.4,3.1-3.1,3.1
					C411.9-204.2,410.6-205.5,410.6-207.2z"/>
				<path class="st1" d="M372.4-231.2c-12.1,0-21.9,9.8-21.9,21.9s9.8,21.9,21.9,21.9s21.9-9.8,21.9-21.9
					C394.4-221.3,384.5-231.2,372.4-231.2z"/>
				<path class="st6" d="M391.9-209.2c0-10.8-8.7-19.5-19.5-19.5s-19.5,8.7-19.5,19.5c0,10.8,8.7,19.5,19.5,19.5
					C383.2-189.8,391.9-198.5,391.9-209.2z"/>
			</g>
			<g>
				<path class="st1" d="M155.2-73.5c0-35.6-28.8-64.4-64.4-64.4s-64.4,28.8-64.4,64.4S55.2-9.1,90.8-9.1
					C126.3-9.1,155.2-38,155.2-73.5z"/>
				<path class="st7" d="M90.8-131.9c-32.2,0-58.4,26.2-58.4,58.4s26.2,58.4,58.4,58.4s58.4-26.2,58.4-58.4
					C149.2-105.7,123-131.9,90.8-131.9z"/>
				<path class="st7" d="M90.8-128.3c-30.2,0-54.8,24.6-54.8,54.8s24.6,54.8,54.8,54.8s54.8-24.6,54.8-54.8S121-128.3,90.8-128.3z"
					/>
				<path class="st3" d="M65.3-64.4c0-2.2-1.8-3.9-3.9-3.9c-2.2,0-3.9,1.8-3.9,3.9c0,2.2,1.8,3.9,3.9,3.9
					C63.5-60.4,65.3-62.2,65.3-64.4z"/>
				<path class="st3" d="M113.5-117.3c0-2.2-1.8-3.9-3.9-3.9c-2.2,0-3.9,1.8-3.9,3.9c0,2.2,1.8,3.9,3.9,3.9
					C111.8-113.3,113.5-115.1,113.5-117.3z"/>
				<path class="st2" d="M121.8-100.3c0-2.2-1.8-3.9-3.9-3.9c-2.2,0-3.9,1.8-3.9,3.9c0,2.2,1.8,3.9,3.9,3.9
					C120.1-96.4,121.8-98.2,121.8-100.3z M119.6-100.3c0,0.9-0.8,1.7-1.7,1.7c-0.9,0-1.7-0.8-1.7-1.7s0.8-1.7,1.7-1.7
					C118.8-102,119.6-101.3,119.6-100.3z"/>
				<path class="st2" d="M93.8-49.4c0-2.2-1.8-3.9-3.9-3.9c-2.2,0-3.9,1.8-3.9,3.9c0,2.2,1.8,3.9,3.9,3.9
					C92-45.5,93.8-47.2,93.8-49.4z M91.5-49.4c0,0.9-0.8,1.7-1.7,1.7c-0.9,0-1.7-0.8-1.7-1.7s0.8-1.7,1.7-1.7
					C90.8-51.1,91.5-50.3,91.5-49.4z"/>
				<path class="st2" d="M61-95.4c0-2.2-1.8-3.9-3.9-3.9c-2.2,0-3.9,1.8-3.9,3.9c0,2.2,1.8,3.9,3.9,3.9C59.2-91.4,61-93.2,61-95.4z
					 M58.7-95.4c0,0.9-0.8,1.7-1.7,1.7s-1.7-0.8-1.7-1.7s0.8-1.7,1.7-1.7C58-97.1,58.7-96.3,58.7-95.4z"/>
				<path class="st2" d="M121.8-45.5c0-2.2-1.8-3.9-3.9-3.9c-2.2,0-3.9,1.8-3.9,3.9c0,2.2,1.8,3.9,3.9,3.9
					C120.1-41.6,121.8-43.4,121.8-45.5z M119.6-45.5c0,0.9-0.8,1.7-1.7,1.7c-0.9,0-1.7-0.8-1.7-1.7s0.8-1.7,1.7-1.7
					C118.8-47.2,119.6-46.5,119.6-45.5z"/>
				<path class="st3" d="M75.4-87.5c0-2.2-1.8-3.9-3.9-3.9c-2.2,0-3.9,1.8-3.9,3.9c0,2.2,1.8,3.9,3.9,3.9S75.4-85.4,75.4-87.5z"/>
				<path class="st3" d="M118.2-80.5c0-2.2-1.8-3.9-3.9-3.9c-2.2,0-3.9,1.8-3.9,3.9c0,2.2,1.8,3.9,3.9,3.9
					C116.4-76.6,118.2-78.4,118.2-80.5z"/>
				<path class="st3" d="M78.2-113.5c0-2.2-1.8-3.9-3.9-3.9c-2.2,0-3.9,1.8-3.9,3.9c0,2.2,1.8,3.9,3.9,3.9
					C76.4-109.6,78.2-111.4,78.2-113.5z"/>
				<path class="st3" d="M85.6-27.5c0-2.2-1.8-3.9-3.9-3.9c-2.2,0-3.9,1.8-3.9,3.9c0,2.2,1.8,3.9,3.9,3.9
					C83.9-23.5,85.6-25.3,85.6-27.5z"/>
				<path class="st3" d="M108.5-54.6c0-2.2-1.8-3.9-3.9-3.9c-2.2,0-3.9,1.8-3.9,3.9c0,2.2,1.8,3.9,3.9,3.9
					C106.8-50.7,108.5-52.5,108.5-54.6z"/>
				<g>
					<path class="st2" d="M104.7-101c0-6.5-5.2-11.7-11.7-11.7s-11.7,5.2-11.7,11.7S86.5-89.3,93-89.3S104.7-94.6,104.7-101z"/>
					<path class="st6" d="M93-94.3c0-0.6-0.5-1.2-1.2-1.2c-0.6,0-1.2,0.5-1.2,1.2c0,0.6,0.5,1.2,1.2,1.2S93-93.7,93-94.3z"/>
					<path class="st6" d="M87.7-101.8c0-0.6-0.5-1.2-1.2-1.2c-0.6,0-1.2,0.5-1.2,1.2c0,0.6,0.5,1.2,1.2,1.2S87.7-101.2,87.7-101.8z"
						/>
					<path class="st6" d="M100.4-99c0-0.6-0.5-1.2-1.2-1.2S98-99.7,98-99c0,0.6,0.5,1.2,1.2,1.2S100.4-98.4,100.4-99z"/>
					<path class="st6" d="M94.2-101c0-0.6-0.5-1.2-1.2-1.2c-0.6,0-1.2,0.5-1.2,1.2c0,0.6,0.5,1.2,1.2,1.2
						C93.7-99.9,94.2-100.4,94.2-101z"/>
					<path class="st6" d="M95.4-107.5c0-0.6-0.5-1.2-1.2-1.2s-1.2,0.5-1.2,1.2c0,0.6,0.5,1.2,1.2,1.2S95.4-106.8,95.4-107.5z"/>
				</g>
				<g>
					<path class="st2" d="M139.2-65.3c0-6.5-5.2-11.7-11.7-11.7s-11.7,5.2-11.7,11.7s5.2,11.7,11.7,11.7S139.2-58.8,139.2-65.3z"/>
					<path class="st6" d="M127.5-58.6c0-0.6-0.5-1.2-1.2-1.2c-0.6,0-1.2,0.5-1.2,1.2c0,0.6,0.5,1.2,1.2,1.2S127.5-57.9,127.5-58.6z"
						/>
					<path class="st6" d="M122.2-66.1c0-0.6-0.5-1.2-1.2-1.2c-0.6,0-1.2,0.5-1.2,1.2c0,0.6,0.5,1.2,1.2,1.2S122.2-65.4,122.2-66.1z"
						/>
					<path class="st6" d="M134.9-63.3c0-0.6-0.5-1.2-1.2-1.2c-0.6,0-1.2,0.5-1.2,1.2c0,0.6,0.5,1.2,1.2,1.2S134.9-62.6,134.9-63.3z"
						/>
					<path class="st6" d="M128.7-65.3c0-0.6-0.5-1.2-1.2-1.2c-0.6,0-1.2,0.5-1.2,1.2c0,0.6,0.5,1.2,1.2,1.2S128.7-64.6,128.7-65.3z"
						/>
					<path class="st6" d="M129.9-71.7c0-0.6-0.5-1.2-1.2-1.2c-0.6,0-1.2,0.5-1.2,1.2c0,0.6,0.5,1.2,1.2,1.2
						C129.4-70.6,129.9-71.1,129.9-71.7z"/>
				</g>
				<g>
					<path class="st2" d="M78.5-45.5c0-6.5-5.2-11.7-11.7-11.7S55.1-52,55.1-45.5s5.2,11.7,11.7,11.7C73.2-33.8,78.5-39.1,78.5-45.5
						z"/>
					<path class="st6" d="M66.8-38.8c0-0.6-0.5-1.2-1.2-1.2c-0.6,0-1.2,0.5-1.2,1.2c0,0.6,0.5,1.2,1.2,1.2S66.8-38.2,66.8-38.8z"/>
					<path class="st6" d="M61.5-46.3c0-0.6-0.5-1.2-1.2-1.2c-0.6,0-1.2,0.5-1.2,1.2c0,0.6,0.5,1.2,1.2,1.2
						C60.9-45.1,61.5-45.7,61.5-46.3z"/>
					<path class="st6" d="M74.2-43.5c0-0.6-0.5-1.2-1.2-1.2s-1.2,0.5-1.2,1.2c0,0.6,0.5,1.2,1.2,1.2S74.2-42.9,74.2-43.5z"/>
					<path class="st6" d="M68-45.5c0-0.6-0.5-1.2-1.2-1.2c-0.6,0-1.2,0.5-1.2,1.2c0,0.6,0.5,1.2,1.2,1.2C67.4-44.4,68-44.9,68-45.5z
						"/>
					<path class="st6" d="M69.1-52c0-0.6-0.5-1.2-1.2-1.2s-1.2,0.5-1.2,1.2c0,0.6,0.5,1.2,1.2,1.2S69.1-51.3,69.1-52z"/>
				</g>
				<g>
					<path class="st4" d="M107.8-37.3H86.3c0.7,5.3,5.2,9.4,10.8,9.4C102.5-27.9,107.1-32,107.8-37.3z"/>
					<path class="st8" d="M106.4-37.3H87.7c0.7,4.5,4.6,8,9.3,8C101.8-29.3,105.7-32.8,106.4-37.3z"/>
				</g>
				<g>
					<path class="st4" d="M53.6-63.6v-21.5c-5.3,0.7-9.4,5.2-9.4,10.8C44.2-68.8,48.3-64.3,53.6-63.6z"/>
					<path class="st8" d="M53.6-65v-18.7c-4.5,0.7-8,4.6-8,9.3C45.6-69.6,49.1-65.7,53.6-65z"/>
				</g>
				<g>
					<path class="st4" d="M125.5-96.9l9.6,19.3c4.5-3,6.1-8.9,3.7-13.8C136.3-96.4,130.6-98.6,125.5-96.9z"/>
					<path class="st8" d="M126.2-95.6l8.3,16.7c3.7-2.6,5.1-7.7,3-11.9S130.5-97,126.2-95.6z"/>
				</g>
				<g>
					<path class="st4" d="M80-69.6h21.5c-0.7-5.3-5.2-9.4-10.8-9.4C85.3-79,80.7-74.9,80-69.6z"/>
					<path class="st8" d="M81.5-69.6h18.7c-0.7-4.5-4.6-8-9.3-8C86.1-77.6,82.1-74.1,81.5-69.6z"/>
				</g>
			</g>
			<g>
				<path class="st1" d="M218.8-227.2c0-3-0.7-5.9-1.9-8.4c-3.2-6.6-9.9-11.2-17.7-11.2h-85.4c-7.8,0-14.5,4.6-17.7,11.2
					c-1.2,2.6-1.9,5.4-1.9,8.4s0.7,5.9,1.9,8.4c1,2,2.3,3.8,3.8,5.4c3.5,3.6,8.4,5.7,13.9,5.7h85.4c7.8,0,14.5-4.6,17.7-11.2
					C218.1-221.3,218.8-224.2,218.8-227.2z"/>
				<path class="st7" d="M218.8-227.2c0-3-0.7-5.9-1.9-8.4H96.1c-1.2,2.6-1.9,5.4-1.9,8.4s0.7,5.9,1.9,8.4h120.8
					C218.1-221.3,218.8-224.2,218.8-227.2z"/>
				<path class="st2" d="M213.4-227.2c0-4.7-4-8.4-8.9-8.4h-96c-4.9,0-8.9,3.8-8.9,8.4l0,0c0,4.7,4,8.4,8.9,8.4h96
					C209.4-218.8,213.4-222.6,213.4-227.2L213.4-227.2z"/>
				<path class="st9" d="M181-231.4c-5.1,0-7.3,4.9-9.1,8.8c-1.1,2.3-2.4,5.2-3.6,5.2c-1.3,0-2.6-2.9-3.6-5.2
					c-1.8-3.9-4-8.8-9.1-8.8s-7.3,4.9-9.1,8.8c-1.1,2.3-2.4,5.2-3.6,5.2c-1.3,0-2.6-2.9-3.6-5.2c-1.8-3.9-4-8.8-9.1-8.8
					c-5.1,0-7.3,4.9-9.1,8.8c-1.1,2.3-2.4,5.2-3.6,5.2v6c5.1,0,7.3-4.9,9.1-8.8c1.1-2.3,2.4-5.2,3.6-5.2c1.3,0,2.6,2.9,3.6,5.2
					c1.8,3.9,4,8.8,9.1,8.8s7.3-4.9,9.1-8.8c1.1-2.3,2.4-5.2,3.6-5.2c1.3,0,2.6,2.9,3.6,5.2c1.8,3.9,4,8.8,9.1,8.8s7.3-4.9,9.1-8.8
					c1.1-2.3,2.4-5.2,3.6-5.2s2.6,2.9,3.6,5.2c1.8,3.9,4,8.8,9.1,8.8v-6c-1.3,0-2.6-2.9-3.6-5.2C188.3-226.5,186.1-231.4,181-231.4z
					"/>
			</g>
			<path class="st4" d="M286.3-159.7c0-3.3-2.7-6-6-6s-6,2.7-6,6s2.7,6,6,6C283.6-153.7,286.3-156.4,286.3-159.7z"/>
			<path class="st4" d="M410.8-69.7c0-3.3-2.7-6-6-6s-6,2.7-6,6s2.7,6,6,6S410.8-66.4,410.8-69.7z"/>
			<path class="st4" d="M64.9-270.3c0-3.3-2.7-6-6-6s-6,2.7-6,6c0,3.3,2.7,6,6,6S64.9-267,64.9-270.3z"/>
			<path class="st4" d="M72.2-159.6c0-3.3-2.7-6-6-6c-3.3,0-6,2.7-6,6s2.7,6,6,6C69.5-153.6,72.2-156.3,72.2-159.6z"/>
			<path class="st4" d="M301.3-264.7c0-3.3-2.7-6-6-6s-6,2.7-6,6s2.7,6,6,6C298.6-258.7,301.3-261.4,301.3-264.7z"/>
			<path class="st4" d="M184.9-32.9c0-3.3-2.7-6-6-6s-6,2.7-6,6s2.7,6,6,6S184.9-29.6,184.9-32.9z"/>
			<path class="st4" d="M181-170.5c0-1.5-1.2-2.7-2.7-2.7s-2.7,1.2-2.7,2.7s1.2,2.7,2.7,2.7S181-169.1,181-170.5z"/>
			<path class="st4" d="M22.9-222.3c0-1.5-1.2-2.7-2.7-2.7s-2.7,1.2-2.7,2.7s1.2,2.7,2.7,2.7S22.9-220.8,22.9-222.3z"/>
			<path class="st4" d="M202.2-277.6c0-1.5-1.2-2.7-2.7-2.7s-2.7,1.2-2.7,2.7s1.2,2.7,2.7,2.7S202.2-276.1,202.2-277.6z"/>
			<path class="st4" d="M406-139.9c0-1.5-1.2-2.7-2.7-2.7s-2.7,1.2-2.7,2.7s1.2,2.7,2.7,2.7S406-138.4,406-139.9z"/>
			<path class="st4" d="M395.8-278.2c0-1.5-1.2-2.7-2.7-2.7s-2.7,1.2-2.7,2.7s1.2,2.7,2.7,2.7C394.6-275.5,395.8-276.7,395.8-278.2z
				"/>
			<path class="st4" d="M356.2-21.6c0-1.5-1.2-2.7-2.7-2.7s-2.7,1.2-2.7,2.7s1.2,2.7,2.7,2.7S356.2-20.1,356.2-21.6z"/>
		</g>
	</g>
</pattern>
<g id="Background">
</g>
<g id="Object">
	<pattern  id="SVGID_1_" xlink:href="#New_Pattern_7" patternTransform="matrix(1 0 0 -1 -394 -17546.8008)">
	</pattern>
	<rect x="-14.3" y="-19.2" class="st10" width="1431.1" height="1009.6"/>
</g>
</svg>
